<svg width="54" height="54" viewBox="0 0 54 54" fill="none" xmlns="http://www.w3.org/2000/svg">
<circle cx="28" cy="29" r="16" fill="#FFBD43"/>
<rect x="24" width="5" height="8" rx="2.5" fill="#FFBD43"/>
<rect x="9" y="4.5" width="5" height="8" rx="2.5" transform="rotate(-30 9 4.5)" fill="#FFBD43"/>
<rect y="17.8296" width="5" height="8" rx="2.5" transform="rotate(-75 0 17.8296)" fill="#FFBD43"/>
<rect y="31" width="5" height="8" rx="2.5" transform="rotate(-90 0 31)" fill="#FFBD43"/>
<path d="M35.1683 49.4148C28.9545 51.0798 22.6366 49.527 17.9835 45.7782C17.2287 45.1701 17.8317 44.0126 18.7997 44.061C20.7662 44.1593 22.7813 43.9573 24.7855 43.4203C35.1223 40.6504 41.2567 30.0254 38.4871 19.6884C37.95 17.6842 37.1175 15.8381 36.049 14.1843C35.5231 13.3701 36.2241 12.2692 37.1281 12.6188C42.7013 14.7741 47.2049 19.4691 48.8699 25.683C51.6395 36.0199 45.5052 46.6449 35.1683 49.4148Z" fill="#E7EEEF"/>
</svg>
