<svg width="32" height="14" viewBox="0 0 32 14" fill="none" xmlns="http://www.w3.org/2000/svg">
<path fill-rule="evenodd" clip-rule="evenodd" d="M30.2701 13.648C30.7706 13.648 31.1763 13.2423 31.1763 12.7417C31.1763 12.2412 30.7706 11.8354 30.2701 11.8354C29.7695 11.8354 29.3638 12.2412 29.3638 12.7417C29.3638 13.2423 29.7695 13.648 30.2701 13.648Z" fill="#6E90AF"/>
<path fill-rule="evenodd" clip-rule="evenodd" d="M16.4003 0.571147V1.81096C16.4003 2.9304 15.5709 3.93599 14.4207 4.0714C13.048 4.23315 11.876 3.19722 11.876 1.90224V0.571147C11.876 0.385326 11.7203 0.234863 11.528 0.234863H10.1359C9.94382 0.234863 9.78784 0.385326 9.78784 0.571147V1.77459C9.78784 3.91191 11.3845 5.80021 13.5788 6.07105C14.4134 6.17411 15.206 6.04221 15.9036 5.73928C16.1369 5.63822 16.4003 5.79445 16.4003 6.04146V7.69052V8.57173V9.35338C16.4003 10.4726 15.5709 11.4784 14.4207 11.6138C13.048 11.7753 11.876 10.7396 11.876 9.44466V8.02681C11.876 7.84099 11.7203 7.69052 11.528 7.69052H10.1359C9.94382 7.69052 9.78784 7.84099 9.78784 8.02681V9.30574C9.78784 11.5022 11.4709 13.4322 13.7347 13.6303C16.3142 13.856 18.4882 11.8912 18.4882 9.44466V8.57173V7.69052V1.90224V0.571147C18.4882 0.385326 18.3328 0.234863 18.1405 0.234863H16.7484C16.556 0.234863 16.4003 0.385326 16.4003 0.571147Z" fill="#6E90AF"/>
<mask id="mask0_826_6" style="mask-type:luminance" maskUnits="userSpaceOnUse" x="19" y="0" width="10" height="14">
<path fill-rule="evenodd" clip-rule="evenodd" d="M19.6018 0.360596H28.1804V13.648H19.6018V0.360596Z" fill="white"/>
</mask>
<g mask="url(#mask0_826_6)">
<path fill-rule="evenodd" clip-rule="evenodd" d="M28.1804 3.1463V0.693439C28.1804 0.50963 28.0266 0.360596 27.8372 0.360596H26.4646C26.2753 0.360596 26.1215 0.50963 26.1215 0.693439V3.1463C26.1215 4.34006 25.1209 5.31127 23.8911 5.31127C23.8867 5.31127 23.8824 5.31077 23.8783 5.31077V5.31251C23.2636 5.3145 22.681 5.44416 22.1531 5.67367C21.9223 5.77427 21.6605 5.62002 21.6605 5.37436V0.693439C21.6605 0.50963 21.5069 0.360596 21.3176 0.360596H19.9447C19.7553 0.360596 19.6018 0.50963 19.6018 0.693439V9.47554V11.213V13.3149C19.6018 13.4987 19.7553 13.648 19.9447 13.648H21.3176C21.5069 13.648 21.6605 13.4987 21.6605 13.3149V11.213V9.56844C21.6605 8.45838 22.4796 7.4601 23.6147 7.32696C24.9674 7.16824 26.1215 8.19359 26.1215 9.47554V10.1005V11.213V13.3094C26.1215 13.4935 26.2753 13.6425 26.4646 13.6425H27.8372C28.0266 13.6425 28.1804 13.4935 28.1804 13.3094V11.213V10.1005V9.47554C28.1804 8.32996 27.6998 7.29268 26.9255 6.53956C26.7965 6.41388 26.7965 6.20796 26.9255 6.08252C27.6998 5.3294 28.1804 4.29187 28.1804 3.1463Z" fill="#6E90AF"/>
</g>
<mask id="mask1_826_6" style="mask-type:luminance" maskUnits="userSpaceOnUse" x="0" y="0" width="9" height="14">
<path fill-rule="evenodd" clip-rule="evenodd" d="M0 0H8.57871V13.4508H0V0Z" fill="white"/>
</mask>
<g mask="url(#mask1_826_6)">
<path fill-rule="evenodd" clip-rule="evenodd" d="M6.84389 13.4508H8.23544C8.4248 13.4508 8.57859 13.2997 8.57859 13.1136V11.7648C8.57859 11.5785 8.4248 11.4276 8.23544 11.4276H6.84389C4.12527 11.4276 1.92919 9.18833 2.06482 6.48866C2.19149 3.96275 4.40906 2.02324 6.98258 2.02324H8.25796C8.40817 2.02324 8.53202 1.92668 8.57859 1.79442V0.186834C8.52204 0.0774495 8.4097 0 8.27587 0H6.84389C3.07969 0 -0.000244141 3.02632 -0.000244141 6.72529C-0.000244141 10.4243 3.07969 13.4508 6.84389 13.4508Z" fill="#6E90AF"/>
</g>
<path fill-rule="evenodd" clip-rule="evenodd" d="M6.36735 8.47559L8.5934 6.45191C8.73596 6.32231 8.73596 6.11232 8.5934 5.98297L7.56145 5.04483C7.41889 4.91523 7.18818 4.91523 7.04562 5.04483L4.81957 7.06851C4.67701 7.19787 4.67701 7.4081 4.81957 7.53746L5.85152 8.47559C5.99381 8.60519 6.22506 8.60519 6.36735 8.47559Z" fill="#6E90AF"/>
</svg>


